<svg width="1130" height="225" viewBox="0 0 1130 225" fill="none" xmlns="http://www.w3.org/2000/svg">
<path d="M451.883 71.5932L449.761 94.5226C440.665 76.7221 419.745 67.0676 397.308 67.0676C355.164 67.0676 326.967 97.5396 326.967 144.304C326.967 190.766 352.435 224.557 397.005 224.557C421.261 224.557 439.149 212.79 448.548 197.403L450.974 220.635H485.538V71.5932H451.883ZM447.942 146.114C447.942 172.965 431.266 191.369 405.495 191.369C379.723 191.369 363.957 172.664 363.957 146.114C363.957 119.564 380.026 100.557 405.798 100.557C431.569 100.557 447.942 119.262 447.942 146.114Z" fill="#FF414C"/>
<path d="M548.475 220.635V180.508L570.305 157.88L609.417 220.635H651.865L596.077 130.727L653.077 71.5932H606.688L548.475 134.046V0.556641H511.788V220.635H548.475Z" fill="#FF414C"/>
<path d="M776.084 71.5932L773.962 94.5226C764.866 76.7221 743.945 67.0676 721.509 67.0676C679.365 67.0676 651.168 97.5396 651.168 144.304C651.168 190.766 676.636 224.557 721.206 224.557C745.461 224.557 763.35 212.79 772.749 197.403L775.175 220.635H809.739V71.5932H776.084ZM772.143 146.114C772.143 172.965 755.467 191.369 729.695 191.369C703.924 191.369 688.157 172.664 688.157 146.114C688.157 119.564 704.227 100.557 729.998 100.557C755.77 100.557 772.143 119.262 772.143 146.114Z" fill="#FF414C"/>
<path d="M828.457 175.379C828.457 204.644 852.106 224.557 889.399 224.557C926.389 224.557 952.161 205.851 952.161 175.681C952.161 152.751 939.427 141.287 914.261 135.554L887.277 129.218C874.543 126.201 867.872 120.771 867.872 112.323C867.872 101.16 876.362 94.5226 890.915 94.5226C905.165 94.5226 913.655 102.669 913.958 115.34H949.129C948.826 86.3766 926.086 67.0676 892.431 67.0676C857.867 67.0676 833.005 84.5664 833.005 113.832C833.005 137.666 846.042 150.338 873.027 156.372L900.011 162.708C913.352 165.725 917.293 171.155 917.293 178.698C917.293 189.559 907.894 196.498 890.612 196.498C873.633 196.498 863.931 188.352 863.628 175.379H828.457Z" fill="#FF414C"/>
<path d="M1009.76 220.635V139.175C1009.76 116.849 1023.4 100.557 1046.75 100.557C1065.55 100.557 1077.98 112.625 1077.98 137.666V220.635H1114.97V128.917C1114.97 90.2988 1095.56 67.0676 1058.57 67.0676C1037.05 67.0676 1019.46 76.4204 1010.06 90.9022V0.556641H972.768V220.635H1009.76Z" fill="#FF414C"/>
<path d="M172.102 149.223L214.358 223.544H129.001L86.2993 149.223H172.102Z" fill="url(#paint0_linear_247_978)"/>
<path d="M214.335 223.557L256.967 149.235L171.633 0.556641H86.2993L214.335 223.557Z" fill="#FF414C"/>
<path d="M43.6334 74.8594H128.967L43.6689 223.538L0.966797 149.217L43.6334 74.8594Z" fill="#FF414C"/>
<defs>
<linearGradient id="paint0_linear_247_978" x1="138.792" y1="174.558" x2="178.707" y2="132.444" gradientUnits="userSpaceOnUse">
<stop stop-color="#FF414C"/>
<stop offset="1" stop-color="#FF414C" stop-opacity="0"/>
</linearGradient>
</defs>
</svg>
